<?xml version="1.0" standalone="no"?><!DOCTYPE svg PUBLIC "-//W3C//DTD SVG 1.1//EN" "http://www.w3.org/Graphics/SVG/1.1/DTD/svg11.dtd"><svg t="1512958894960" class="icon" style="" viewBox="0 0 1024 1024" version="1.1" xmlns="http://www.w3.org/2000/svg" p-id="2173" xmlns:xlink="http://www.w3.org/1999/xlink" width="200" height="200"><defs><style type="text/css">@font-face { font-family: rbicon; src: url("chrome-extension://dipiagiiohfljcicegpgffpbnjmgjcnf/fonts/rbicon.woff2") format("woff2"); font-weight: 400; font-style: normal; }
</style></defs><path d="M913.642 364.754C873.564 325.576 820.124 304 763.17 304c-56.954 0-110.39 21.576-150.42 60.708l-78.212 75.77 50.12 49.378 77.686-75.538c26.916-26.19 62.642-40.614 100.598-40.614 37.958 0 73.682 14.424 100.564 40.582 26.726 26.154 41.424 60.936 41.386 97.94-0.038 36.886-14.726 71.5-41.354 97.456-26.916 26.19-62.64 40.614-100.598 40.614-37.956 0-73.682-14.424-100.582-40.598L411.292 364.718C370.982 325.564 317.556 304 260.854 304c-56.954 0-110.39 21.576-150.46 60.746C70.206 403.972 48.046 456.264 48 511.986c-0.048 55.644 22.11 107.946 62.384 147.26C150.464 698.424 203.902 720 260.854 720c56.95 0 110.388-21.576 150.446-60.726l77.988-75.818-50.176-49.004-77.658 75.23c-26.916 26.19-62.642 40.614-100.6 40.614-37.954 0-73.678-14.424-100.56-40.582-26.728-26.154-41.428-60.938-41.388-97.942 0.038-36.886 14.726-71.498 41.356-97.454 26.916-26.19 62.64-40.614 100.594-40.614 37.958 0 73.684 14.424 100.584 40.598l251.064 244.978C652.812 698.436 706.238 720 762.94 720c56.952 0 110.388-21.576 150.426-60.71 40.358-39.146 62.602-91.454 62.634-147.28C976.034 456.334 953.884 404.036 913.642 364.754z" p-id="2174" fill="#9b4dca"></path></svg>